<svg width="400" height="400" viewBox="0 0 400 400" fill="none" xmlns="http://www.w3.org/2000/svg">
<rect width="400" height="400" fill="white"/>
<path d="M101 101H149.262C175.917 101 197.525 122.608 197.525 149.263V149.263C197.525 175.917 175.917 197.525 149.263 197.525V197.525C122.608 197.525 101 175.917 101 149.263V101Z" fill="url(#paint0_linear_1470_640)"/>
<path d="M101 202.475H149.262C175.917 202.475 197.525 224.082 197.525 250.737V250.737C197.525 277.392 175.917 299 149.263 299V299C122.608 299 101 277.392 101 250.737V202.475Z" fill="black"/>
<path d="M202.475 101H250.737C277.392 101 299 122.608 299 149.263V149.263C299 175.917 277.392 197.525 250.737 197.525V197.525C224.083 197.525 202.475 175.917 202.475 149.263V101Z" fill="black"/>
<path d="M202.475 202.475H250.737C277.392 202.475 299 224.082 299 250.737V250.737C299 277.392 277.392 299 250.737 299V299C224.083 299 202.475 277.392 202.475 250.737V202.475Z" fill="black"/>
<defs>
<linearGradient id="paint0_linear_1470_640" x1="149.263" y1="101" x2="149.263" y2="197.525" gradientUnits="userSpaceOnUse">
<stop stop-color="#8181FF"/>
<stop offset="1" stop-color="#FEFFDA"/>
</linearGradient>
</defs>
</svg>
