<svg width="591" height="100" viewBox="0 0 591 100" fill="none" xmlns="http://www.w3.org/2000/svg">
<path d="M0 7.88623H20.5305C31.8692 7.88623 41.0611 17.0781 41.0611 28.4168V28.4168C41.0611 39.7555 31.8693 48.9473 20.5305 48.9473V48.9473C9.19184 48.9473 0 39.7555 0 28.4168V7.88623Z" fill="url(#paint0_linear_1470_622)"/>
<path d="M0 51.0527H20.5305C31.8692 51.0527 41.0611 60.2446 41.0611 71.5833V71.5833C41.0611 82.922 31.8693 92.1138 20.5305 92.1138V92.1138C9.19184 92.1138 0 82.922 0 71.5833V51.0527Z" fill="white"/>
<path d="M43.1667 7.88623H63.6973C75.036 7.88623 84.2278 17.0781 84.2278 28.4168V28.4168C84.2278 39.7555 75.036 48.9473 63.6973 48.9473V48.9473C52.3586 48.9473 43.1667 39.7555 43.1667 28.4168V7.88623Z" fill="white"/>
<path d="M43.1667 51.0527H63.6973C75.036 51.0527 84.2278 60.2446 84.2278 71.5833V71.5833C84.2278 82.922 75.036 92.1138 63.6973 92.1138V92.1138C52.3586 92.1138 43.1667 82.922 43.1667 71.5833V51.0527Z" fill="white"/>
<path d="M194.269 20.5528V26.1063H187.201L173.648 74.8835C173.13 76.3851 172.664 77.5113 172.25 78.2621C171.861 78.9871 171.382 79.5178 170.813 79.8544C170.269 80.191 169.544 80.3592 168.638 80.3592C167.758 80.3592 167.059 80.191 166.541 79.8544C166.049 79.5437 165.622 79.0259 165.259 78.301C164.897 77.5501 164.496 76.411 164.056 74.8835L153.764 39.6986C153.764 39.7504 153.233 41.6663 152.172 45.4463L151.356 48.4754L150.463 51.6211C149.324 55.7376 147.978 60.5662 146.424 66.1067L143.978 74.8835C143.434 76.8511 142.761 78.2492 141.958 79.0777C141.156 79.932 140.055 80.3592 138.657 80.3592C137.337 80.3592 136.301 79.9579 135.55 79.1553C134.8 78.3527 134.114 76.9288 133.492 74.8835L118.463 26.1063H109.57V20.5528H136.599V26.1063H128.405L139.706 67.0776L150.929 26.1063H158.696L169.997 67.0776L180.599 26.1063H172.716V20.5528H194.269ZM201.104 80.0486C198.981 80.0486 197.104 79.6731 195.473 78.9223C193.842 78.1456 192.574 77.0323 191.667 75.5825C190.761 74.1326 190.308 72.4368 190.308 70.4951C190.308 68.9675 190.645 67.5695 191.318 66.3008C192.017 65.0063 192.962 63.9189 194.153 63.0387C195.292 62.1843 196.587 61.3688 198.036 60.5921C199.512 59.8153 201.014 59.1422 202.541 58.5726C205.648 57.4593 208.444 56.1778 210.93 54.7279C212.121 54.0289 213.053 53.1874 213.726 52.2036C214.399 51.2198 214.736 50.1583 214.736 49.0191C214.736 46.1194 214.024 43.9446 212.6 42.4948C211.176 41.019 209.13 40.2812 206.464 40.2812C204.6 40.2812 202.839 40.5789 201.182 41.1744C199.551 41.744 198.282 42.5336 197.376 43.5433C198.981 43.5433 200.276 43.9835 201.26 44.8637C202.27 45.7181 202.774 46.7796 202.774 48.0482C202.774 49.1097 202.528 50.0677 202.037 50.9221C201.57 51.7505 200.923 52.3978 200.095 52.8638C199.266 53.3298 198.36 53.5629 197.376 53.5629C195.771 53.5629 194.412 53.0062 193.299 51.8929C192.211 50.7797 191.667 49.2392 191.667 47.2715C191.667 46.21 192.017 45.0709 192.716 43.854C193.415 42.6113 194.399 41.4074 195.668 40.2423C196.988 39.0255 198.748 38.0546 200.949 37.3297C203.176 36.5789 205.571 36.2035 208.134 36.2035C210.283 36.2035 212.224 36.4494 213.959 36.9413C215.694 37.4074 217.26 38.1582 218.658 39.1938C220.082 40.2553 221.169 41.7181 221.92 43.5822C222.697 45.4463 223.085 47.634 223.085 50.1453V68.0096C223.085 69.1229 223.215 70.1326 223.474 71.0388C223.758 71.919 224.237 72.7087 224.911 73.4077C225.661 74.1585 226.58 74.5339 227.668 74.5339C230.956 74.5339 232.6 72.2297 232.6 67.6212V61.8348H236.833V66.8445C236.833 69.4077 236.561 71.5954 236.017 73.4077C235.474 75.1941 234.684 76.5534 233.648 77.4854C232.639 78.3916 231.525 79.0388 230.309 79.4272C229.092 79.8414 227.655 80.0486 225.998 80.0486C224.211 80.0486 222.567 79.699 221.066 79C219.59 78.301 218.334 77.2265 217.299 75.7767C216.186 74.2491 215.538 72.4368 215.357 70.3397C214.632 72.2038 213.532 73.8737 212.056 75.3495C210.606 76.8252 208.923 77.9773 207.007 78.8058C205.092 79.6343 203.124 80.0486 201.104 80.0486ZM203.124 74.4563C204.807 74.4563 206.567 73.9514 208.406 72.9417C210.244 71.932 211.758 70.6375 212.949 69.0582C214.14 67.5306 214.736 66.0419 214.736 64.5921V56.3202C213.26 57.7959 211.474 59.181 209.376 60.4755C207.305 61.7701 205.415 62.8057 203.706 63.5824C202.179 64.2555 200.936 65.1487 199.978 66.262C199.046 67.3494 198.58 68.631 198.58 70.1067C198.58 71.4271 198.969 72.4886 199.745 73.2912C200.548 74.0679 201.674 74.4563 203.124 74.4563ZM253.921 80.0486C250.581 80.0486 247.72 79.0647 245.338 77.0971C244.095 76.0873 243.111 74.754 242.386 73.097C241.687 71.4401 241.338 69.5889 241.338 67.5436V41.6792H233.415V39.854C235.331 39.2844 237.105 38.2488 238.736 36.7472C240.367 35.2455 241.7 33.5497 242.736 31.6597C243.694 29.951 244.548 28.2163 245.299 26.4558C246.257 24.2551 246.904 22.8441 247.241 22.2227C247.785 21.1095 248.264 20.5528 248.678 20.5528C248.988 20.5528 249.234 20.6693 249.416 20.9023C249.597 21.1354 249.687 21.4719 249.687 21.9121V37.3297H264.989V41.7569H249.687V67.7766C249.687 70.0031 250.192 71.699 251.202 72.864C252.212 74.0291 253.597 74.6116 255.357 74.6116C257.506 74.6116 259.086 73.9126 260.095 72.5145C261.131 71.0905 261.649 68.7216 261.649 65.4076V59.8153H266.309V64.5921C266.309 68.1132 265.908 70.9999 265.105 73.2524C264.303 75.5048 262.995 77.2006 261.183 78.3398C259.37 79.479 256.95 80.0486 253.921 80.0486ZM291.979 80.0486C288.872 80.0486 286.011 79.466 283.397 78.301C280.782 77.11 278.62 75.4789 276.911 73.4077C275.228 71.3883 273.934 69.1099 273.028 66.5727C272.147 64.0355 271.707 61.4076 271.707 58.6891C271.707 56.3331 271.979 54.0548 272.523 51.8541C273.092 49.6534 273.921 47.621 275.008 45.757C277.39 41.6922 280.575 38.909 284.562 37.4074C286.659 36.6048 288.976 36.2035 291.513 36.2035C294.154 36.2035 296.614 36.6695 298.892 37.6015C301.17 38.5336 303.164 39.8799 304.872 41.6404C306.607 43.4527 307.966 45.7311 308.95 48.4754C309.96 51.2198 310.491 54.2619 310.542 57.6017H280.6V57.9124C280.6 62.4173 281.558 66.2102 283.474 69.2912C284.432 70.8446 285.714 72.0614 287.319 72.9417C288.924 73.7961 290.749 74.2233 292.795 74.2233C294.607 74.2233 296.355 73.8478 298.037 73.097C299.746 72.3203 301.222 71.207 302.465 69.7572C303.733 68.2814 304.639 66.5597 305.183 64.5921L309.727 66.029C309.054 68.8769 307.902 71.3624 306.271 73.4854C304.639 75.5825 302.607 77.2006 300.173 78.3398C297.74 79.479 295.008 80.0486 291.979 80.0486ZM301.999 53.4075C301.947 50.9479 301.455 48.7732 300.523 46.8832C299.617 44.9673 298.387 43.4786 296.834 42.4171C295.306 41.3556 293.61 40.8249 291.746 40.8249C289.856 40.8249 288.122 41.3556 286.542 42.4171C284.963 43.4786 283.668 44.9673 282.659 46.8832C281.675 48.7732 281.079 50.9479 280.872 53.4075H301.999ZM313.921 74.6504H321.494V41.6792H313.921V37.3297L328.64 36.6695L329.688 45.757C330.336 43.5563 331.514 41.4851 333.222 39.5433C334.128 38.5077 335.242 37.6921 336.562 37.0967C337.908 36.5012 339.345 36.2035 340.873 36.2035C342.297 36.2035 343.591 36.4753 344.756 37.019C345.921 37.5368 346.841 38.3006 347.514 39.3103C348.213 40.32 348.562 41.511 348.562 42.8831C348.562 44.1776 348.29 45.3168 347.747 46.3006C347.229 47.2586 346.517 47.9965 345.611 48.5143C344.705 49.0062 343.708 49.2521 342.62 49.2521C341.093 49.2521 339.785 48.7732 338.698 47.8152C337.637 46.8573 337.106 45.6146 337.106 44.087C337.106 43.5951 337.222 43.0644 337.455 42.4948C337.714 41.9252 337.986 41.4592 338.271 41.0967L338.698 40.6695C337.171 40.6695 335.811 41.1485 334.62 42.1064C333.429 43.0385 332.497 44.333 331.824 45.99C330.504 49.2004 329.844 52.7603 329.844 56.6697V74.6504H338.582V79H313.921V74.6504ZM368.99 79V73.4465H378.427V26.1063H368.99V20.5528H396.485V26.1063H387.592V73.4465H409.534V54.7279H416.796V79H368.99ZM431.631 80.0486C429.508 80.0486 427.631 79.6731 426 78.9223C424.369 78.1456 423.1 77.0323 422.194 75.5825C421.288 74.1326 420.835 72.4368 420.835 70.4951C420.835 68.9675 421.171 67.5695 421.845 66.3008C422.544 65.0063 423.489 63.9189 424.679 63.0387C425.819 62.1843 427.113 61.3688 428.563 60.5921C430.039 59.8153 431.54 59.1422 433.068 58.5726C436.175 57.4593 438.971 56.1778 441.456 54.7279C442.647 54.0289 443.579 53.1874 444.252 52.2036C444.926 51.2198 445.262 50.1583 445.262 49.0191C445.262 46.1194 444.55 43.9446 443.126 42.4948C441.702 41.019 439.657 40.2812 436.99 40.2812C435.126 40.2812 433.366 40.5789 431.709 41.1744C430.078 41.744 428.809 42.5336 427.903 43.5433C429.508 43.5433 430.803 43.9835 431.786 44.8637C432.796 45.7181 433.301 46.7796 433.301 48.0482C433.301 49.1097 433.055 50.0677 432.563 50.9221C432.097 51.7505 431.45 52.3978 430.621 52.8638C429.793 53.3298 428.887 53.5629 427.903 53.5629C426.298 53.5629 424.938 53.0062 423.825 51.8929C422.738 50.7797 422.194 49.2392 422.194 47.2715C422.194 46.21 422.544 45.0709 423.243 43.854C423.942 42.6113 424.925 41.4074 426.194 40.2423C427.514 39.0255 429.275 38.0546 431.476 37.3297C433.702 36.5789 436.097 36.2035 438.66 36.2035C440.809 36.2035 442.751 36.4494 444.486 36.9413C446.22 37.4074 447.787 38.1582 449.185 39.1938C450.609 40.2553 451.696 41.7181 452.447 43.5822C453.223 45.4463 453.612 47.634 453.612 50.1453V68.0096C453.612 69.1229 453.741 70.1326 454 71.0388C454.285 71.919 454.764 72.7087 455.437 73.4077C456.188 74.1585 457.107 74.5339 458.194 74.5339C461.482 74.5339 463.126 72.2297 463.126 67.6212V61.8348H467.36V66.8445C467.36 69.4077 467.088 71.5954 466.544 73.4077C466 75.1941 465.211 76.5534 464.175 77.4854C463.165 78.3916 462.052 79.0388 460.835 79.4272C459.618 79.8414 458.181 80.0486 456.524 80.0486C454.738 80.0486 453.094 79.699 451.592 79C450.117 78.301 448.861 77.2265 447.825 75.7767C446.712 74.2491 446.065 72.4368 445.884 70.3397C445.159 72.2038 444.058 73.8737 442.583 75.3495C441.133 76.8252 439.45 77.9773 437.534 78.8058C435.618 79.6343 433.65 80.0486 431.631 80.0486ZM433.65 74.4563C435.333 74.4563 437.094 73.9514 438.932 72.9417C440.77 71.932 442.285 70.6375 443.476 69.0582C444.667 67.5306 445.262 66.0419 445.262 64.5921V56.3202C443.786 57.7959 442 59.181 439.903 60.4755C437.832 61.7701 435.942 62.8057 434.233 63.5824C432.705 64.2555 431.463 65.1487 430.505 66.262C429.573 67.3494 429.107 68.631 429.107 70.1067C429.107 71.4271 429.495 72.4886 430.272 73.2912C431.074 74.0679 432.201 74.4563 433.65 74.4563ZM477.068 97.1361C474.712 97.1361 472.615 96.7607 470.777 96.0099C468.965 95.285 467.541 94.2623 466.505 92.9419C465.495 91.6474 464.991 90.1587 464.991 88.4758C464.991 86.6376 465.586 85.136 466.777 83.9709C467.994 82.8318 469.625 82.2622 471.67 82.2622C473.224 82.2622 474.415 82.78 475.243 83.8156C476.097 84.8771 476.525 86.2363 476.525 87.8933C476.525 88.7994 476.227 89.6279 475.631 90.3788C475.036 91.1296 474.246 91.738 473.263 92.204C474.324 92.7736 475.178 93.0584 475.826 93.0584C478.156 93.0584 480.098 92.0098 481.651 89.9127C483.204 87.8415 484.382 84.5017 485.185 79.8932L469.767 41.6792H462.039V37.3297H486V41.6792H478.932L490.195 72.165L499.826 41.6792H493.379V37.3297H513.341V41.6792H506.661L493.302 79.1553C491.774 83.5826 490.208 87.1036 488.602 89.7186C486.997 92.3335 485.263 94.2235 483.399 95.3885C481.534 96.5536 479.424 97.1361 477.068 97.1361ZM533.224 80.0486C530.117 80.0486 527.257 79.466 524.642 78.301C522.027 77.11 519.865 75.4789 518.156 73.4077C516.473 71.3883 515.179 69.1099 514.273 66.5727C513.392 64.0355 512.952 61.4076 512.952 58.6891C512.952 56.3331 513.224 54.0548 513.768 51.8541C514.337 49.6534 515.166 47.621 516.253 45.757C518.635 41.6922 521.82 38.909 525.807 37.4074C527.904 36.6048 530.221 36.2035 532.758 36.2035C535.399 36.2035 537.859 36.6695 540.137 37.6015C542.415 38.5336 544.409 39.8799 546.118 41.6404C547.852 43.4527 549.211 45.7311 550.195 48.4754C551.205 51.2198 551.736 54.2619 551.788 57.6017H521.846V57.9124C521.846 62.4173 522.803 66.2102 524.719 69.2912C525.677 70.8446 526.959 72.0614 528.564 72.9417C530.169 73.7961 531.994 74.2233 534.04 74.2233C535.852 74.2233 537.6 73.8478 539.283 73.097C540.991 72.3203 542.467 71.207 543.71 69.7572C544.978 68.2814 545.885 66.5597 546.428 64.5921L550.972 66.029C550.299 68.8769 549.147 71.3624 547.516 73.4854C545.885 75.5825 543.852 77.2006 541.419 78.3398C538.985 79.479 536.253 80.0486 533.224 80.0486ZM543.244 53.4075C543.192 50.9479 542.7 48.7732 541.768 46.8832C540.862 44.9673 539.632 43.4786 538.079 42.4171C536.551 41.3556 534.855 40.8249 532.991 40.8249C531.101 40.8249 529.367 41.3556 527.787 42.4171C526.208 43.4786 524.913 44.9673 523.904 46.8832C522.92 48.7732 522.324 50.9479 522.117 53.4075H543.244ZM555.166 74.6504H562.739V41.6792H555.166V37.3297L569.885 36.6695L570.933 45.757C571.581 43.5563 572.759 41.4851 574.467 39.5433C575.374 38.5077 576.487 37.6921 577.807 37.0967C579.154 36.5012 580.59 36.2035 582.118 36.2035C583.542 36.2035 584.836 36.4753 586.001 37.019C587.167 37.5368 588.086 38.3006 588.759 39.3103C589.458 40.32 589.807 41.511 589.807 42.8831C589.807 44.1776 589.536 45.3168 588.992 46.3006C588.474 47.2586 587.762 47.9965 586.856 48.5143C585.95 49.0062 584.953 49.2521 583.866 49.2521C582.338 49.2521 581.031 48.7732 579.943 47.8152C578.882 46.8573 578.351 45.6146 578.351 44.087C578.351 43.5951 578.467 43.0644 578.7 42.4948C578.959 41.9252 579.231 41.4592 579.516 41.0967L579.943 40.6695C578.416 40.6695 577.056 41.1485 575.865 42.1064C574.675 43.0385 573.742 44.333 573.069 45.99C571.749 49.2004 571.089 52.7603 571.089 56.6697V74.6504H579.827V79H555.166V74.6504Z" fill="white"/>
<defs>
<linearGradient id="paint0_linear_1470_622" x1="20.5305" y1="7.88623" x2="20.5305" y2="48.9473" gradientUnits="userSpaceOnUse">
<stop stop-color="#8181FF"/>
<stop offset="1" stop-color="#FEFFDA"/>
</linearGradient>
</defs>
</svg>
