<svg width="592" height="101" viewBox="0 0 592 101" fill="none" xmlns="http://www.w3.org/2000/svg">
<path d="M0.864502 8.34668H21.395C32.7337 8.34668 41.9256 17.5385 41.9256 28.8772V28.8772C41.9256 40.2159 32.7338 49.4078 21.395 49.4078V49.4078C10.0563 49.4078 0.864502 40.2159 0.864502 28.8772V8.34668Z" fill="url(#paint0_linear_1470_656)"/>
<path d="M0.864502 51.5134H21.395C32.7337 51.5134 41.9256 60.7053 41.9256 72.044V72.044C41.9256 83.3827 32.7338 92.5745 21.395 92.5745V92.5745C10.0563 92.5745 0.864502 83.3827 0.864502 72.044V51.5134Z" fill="black"/>
<path d="M44.0312 8.34668H64.5618C75.9005 8.34668 85.0923 17.5385 85.0923 28.8772V28.8772C85.0923 40.2159 75.9005 49.4078 64.5618 49.4078V49.4078C53.2231 49.4078 44.0312 40.2159 44.0312 28.8772V8.34668Z" fill="black"/>
<path d="M44.0312 51.5134H64.5618C75.9005 51.5134 85.0923 60.7053 85.0923 72.044V72.044C85.0923 83.3827 75.9005 92.5745 64.5618 92.5745V92.5745C53.2231 92.5745 44.0312 83.3827 44.0312 72.044V51.5134Z" fill="black"/>
<path d="M195.134 21.0135V26.567H188.066L174.512 75.3441C173.995 76.8458 173.529 77.972 173.114 78.7228C172.726 79.4477 172.247 79.9785 171.677 80.3151C171.134 80.6516 170.409 80.8199 169.503 80.8199C168.622 80.8199 167.923 80.6516 167.406 80.3151C166.914 80.0044 166.486 79.4866 166.124 78.7617C165.761 78.0108 165.36 76.8717 164.92 75.3441L154.629 40.1593C154.629 40.2111 154.098 42.127 153.036 45.907L152.221 48.9361L151.328 52.0818C150.189 56.1983 148.842 61.0269 147.289 66.5674L144.842 75.3441C144.298 77.3118 143.625 78.7099 142.823 79.5384C142.02 80.3927 140.92 80.8199 139.522 80.8199C138.201 80.8199 137.166 80.4186 136.415 79.616C135.664 78.8134 134.978 77.3895 134.357 75.3441L119.327 26.567H110.434V21.0135H137.463V26.567H129.269L140.57 67.5382L151.794 26.567H159.561L170.862 67.5382L181.464 26.567H173.58V21.0135H195.134ZM201.969 80.5092C199.846 80.5092 197.969 80.1338 196.338 79.383C194.707 78.6063 193.438 77.493 192.532 76.0432C191.626 74.5933 191.173 72.8975 191.173 70.9558C191.173 69.4282 191.509 68.0302 192.182 66.7615C192.882 65.467 193.826 64.3796 195.017 63.4994C196.157 62.645 197.451 61.8295 198.901 61.0527C200.377 60.276 201.878 59.6029 203.406 59.0333C206.513 57.92 209.309 56.6385 211.794 55.1886C212.985 54.4896 213.917 53.6481 214.59 52.6643C215.264 51.6805 215.6 50.619 215.6 49.4798C215.6 46.5801 214.888 44.4053 213.464 42.9555C212.04 41.4797 209.995 40.7419 207.328 40.7419C205.464 40.7419 203.704 41.0396 202.047 41.6351C200.416 42.2047 199.147 42.9943 198.241 44.004C199.846 44.004 201.14 44.4442 202.124 45.3244C203.134 46.1788 203.639 47.2403 203.639 48.5089C203.639 49.5704 203.393 50.5284 202.901 51.3827C202.435 52.2112 201.788 52.8585 200.959 53.3245C200.131 53.7905 199.225 54.0235 198.241 54.0235C196.636 54.0235 195.276 53.4669 194.163 52.3536C193.076 51.2403 192.532 49.6999 192.532 47.7322C192.532 46.6707 192.882 45.5316 193.581 44.3147C194.28 43.072 195.263 41.8681 196.532 40.703C197.852 39.4862 199.613 38.5153 201.814 37.7904C204.04 37.0396 206.435 36.6642 208.998 36.6642C211.147 36.6642 213.089 36.9101 214.823 37.402C216.558 37.868 218.124 38.6189 219.523 39.6545C220.947 40.716 222.034 42.1788 222.785 44.0429C223.561 45.907 223.95 48.0947 223.95 50.606V68.4703C223.95 69.5836 224.079 70.5933 224.338 71.4994C224.623 72.3797 225.102 73.1694 225.775 73.8684C226.526 74.6192 227.445 74.9946 228.532 74.9946C231.82 74.9946 233.464 72.6904 233.464 68.0819V62.2955H237.697V67.3052C237.697 69.8684 237.426 72.0561 236.882 73.8684C236.338 75.6548 235.549 77.0141 234.513 77.9461C233.503 78.8523 232.39 79.4995 231.173 79.8879C229.956 80.3021 228.519 80.5092 226.862 80.5092C225.076 80.5092 223.432 80.1597 221.93 79.4607C220.455 78.7617 219.199 77.6872 218.163 76.2374C217.05 74.7098 216.403 72.8975 216.222 70.8004C215.497 72.6645 214.396 74.3344 212.921 75.8102C211.471 77.2859 209.788 78.438 207.872 79.2665C205.956 80.095 203.988 80.5092 201.969 80.5092ZM203.988 74.917C205.671 74.917 207.432 74.4121 209.27 73.4024C211.108 72.3927 212.623 71.0982 213.814 69.5188C215.005 67.9913 215.6 66.5026 215.6 65.0528V56.7809C214.124 58.2566 212.338 59.6417 210.241 60.9362C208.17 62.2307 206.28 63.2664 204.571 64.0431C203.043 64.7162 201.801 65.6094 200.843 66.7227C199.911 67.8101 199.445 69.0917 199.445 70.5674C199.445 71.8878 199.833 72.9493 200.61 73.7519C201.412 74.5286 202.539 74.917 203.988 74.917ZM254.785 80.5092C251.445 80.5092 248.584 79.5254 246.202 77.5578C244.96 76.548 243.976 75.2147 243.251 73.5577C242.552 71.9007 242.202 70.0496 242.202 68.0043V42.1399H234.28V40.3147C236.196 39.7451 237.969 38.7095 239.6 37.2078C241.231 35.7062 242.565 34.0104 243.6 32.1204C244.558 30.4117 245.413 28.677 246.164 26.9165C247.122 24.7158 247.769 23.3048 248.105 22.6834C248.649 21.5702 249.128 21.0135 249.542 21.0135C249.853 21.0135 250.099 21.13 250.28 21.363C250.461 21.596 250.552 21.9326 250.552 22.3728V37.7904H265.853V42.2176H250.552V68.2373C250.552 70.4638 251.057 72.1597 252.067 73.3247C253.076 74.4898 254.461 75.0723 256.222 75.0723C258.371 75.0723 259.95 74.3733 260.96 72.9752C261.995 71.5512 262.513 69.1823 262.513 65.8683V60.276H267.174V65.0528C267.174 68.5739 266.772 71.4606 265.97 73.7131C265.167 75.9655 263.86 77.6613 262.047 78.8005C260.235 79.9397 257.814 80.5092 254.785 80.5092ZM292.844 80.5092C289.737 80.5092 286.876 79.9267 284.261 78.7617C281.646 77.5707 279.484 75.9396 277.776 73.8684C276.093 71.849 274.798 69.5706 273.892 67.0334C273.012 64.4961 272.572 61.8683 272.572 59.1498C272.572 56.7938 272.843 54.5155 273.387 52.3148C273.957 50.1141 274.785 48.0817 275.873 46.2176C278.255 42.1529 281.439 39.3697 285.426 37.868C287.523 37.0655 289.84 36.6642 292.378 36.6642C295.018 36.6642 297.478 37.1302 299.756 38.0622C302.035 38.9943 304.028 40.3406 305.737 42.1011C307.472 43.9134 308.831 46.1918 309.815 48.9361C310.824 51.6805 311.355 54.7226 311.407 58.0624H281.465V58.3731C281.465 62.878 282.423 66.6709 284.339 69.7519C285.297 71.3053 286.578 72.5221 288.183 73.4024C289.789 74.2568 291.614 74.6839 293.659 74.6839C295.472 74.6839 297.219 74.3085 298.902 73.5577C300.611 72.781 302.086 71.6677 303.329 70.2179C304.598 68.7421 305.504 67.0204 306.048 65.0528L310.591 66.4897C309.918 69.3376 308.766 71.8231 307.135 73.9461C305.504 76.0432 303.472 77.6613 301.038 78.8005C298.604 79.9397 295.873 80.5092 292.844 80.5092ZM302.863 53.8682C302.811 51.4086 302.319 49.2339 301.387 47.3439C300.481 45.428 299.251 43.9393 297.698 42.8778C296.171 41.8163 294.475 41.2856 292.611 41.2856C290.721 41.2856 288.986 41.8163 287.407 42.8778C285.827 43.9393 284.533 45.428 283.523 47.3439C282.539 49.2339 281.944 51.4086 281.737 53.8682H302.863ZM314.786 75.1111H322.359V42.1399H314.786V37.7904L329.504 37.1302L330.553 46.2176C331.2 44.017 332.378 41.9458 334.087 40.004C334.993 38.9684 336.106 38.1528 337.427 37.5574C338.773 36.9619 340.21 36.6642 341.737 36.6642C343.161 36.6642 344.456 36.936 345.621 37.4797C346.786 37.9975 347.705 38.7613 348.378 39.771C349.077 40.7807 349.427 41.9716 349.427 43.3438C349.427 44.6383 349.155 45.7775 348.611 46.7613C348.093 47.7193 347.381 48.4572 346.475 48.975C345.569 49.4669 344.572 49.7128 343.485 49.7128C341.957 49.7128 340.65 49.2339 339.563 48.2759C338.501 47.318 337.97 46.0752 337.97 44.5477C337.97 44.0558 338.087 43.5251 338.32 42.9555C338.579 42.3859 338.851 41.9199 339.135 41.5574L339.563 41.1302C338.035 41.1302 336.676 41.6092 335.485 42.5671C334.294 43.4992 333.362 44.7937 332.689 46.4507C331.368 49.661 330.708 53.221 330.708 57.1304V75.1111H339.446V79.4607H314.786V75.1111ZM369.854 79.4607V73.9072H379.291V26.567H369.854V21.0135H397.35V26.567H388.456V73.9072H410.398V55.1886H417.66V79.4607H369.854ZM432.496 80.5092C430.373 80.5092 428.495 80.1338 426.864 79.383C425.233 78.6063 423.965 77.493 423.059 76.0432C422.152 74.5933 421.699 72.8975 421.699 70.9558C421.699 69.4282 422.036 68.0302 422.709 66.7615C423.408 65.467 424.353 64.3796 425.544 63.4994C426.683 62.645 427.978 61.8295 429.428 61.0527C430.903 60.276 432.405 59.6029 433.932 59.0333C437.039 57.92 439.835 56.6385 442.321 55.1886C443.512 54.4896 444.444 53.6481 445.117 52.6643C445.79 51.6805 446.127 50.619 446.127 49.4798C446.127 46.5801 445.415 44.4053 443.991 42.9555C442.567 41.4797 440.521 40.7419 437.855 40.7419C435.991 40.7419 434.23 41.0396 432.573 41.6351C430.942 42.2047 429.673 42.9943 428.767 44.004C430.373 44.004 431.667 44.4442 432.651 45.3244C433.661 46.1788 434.165 47.2403 434.165 48.5089C434.165 49.5704 433.919 50.5284 433.428 51.3827C432.962 52.2112 432.314 52.8585 431.486 53.3245C430.657 53.7905 429.751 54.0235 428.767 54.0235C427.162 54.0235 425.803 53.4669 424.69 52.3536C423.602 51.2403 423.059 49.6999 423.059 47.7322C423.059 46.6707 423.408 45.5316 424.107 44.3147C424.806 43.072 425.79 41.8681 427.059 40.703C428.379 39.4862 430.14 38.5153 432.34 37.7904C434.567 37.0396 436.962 36.6642 439.525 36.6642C441.674 36.6642 443.615 36.9101 445.35 37.402C447.085 37.868 448.651 38.6189 450.049 39.6545C451.473 40.716 452.56 42.1788 453.311 44.0429C454.088 45.907 454.476 48.0947 454.476 50.606V68.4703C454.476 69.5836 454.606 70.5933 454.865 71.4994C455.149 72.3797 455.628 73.1694 456.302 73.8684C457.052 74.6192 457.971 74.9946 459.059 74.9946C462.347 74.9946 463.991 72.6904 463.991 68.0819V62.2955H468.224V67.3052C468.224 69.8684 467.952 72.0561 467.408 73.8684C466.865 75.6548 466.075 77.0141 465.04 77.9461C464.03 78.8523 462.917 79.4995 461.7 79.8879C460.483 80.3021 459.046 80.5092 457.389 80.5092C455.603 80.5092 453.959 80.1597 452.457 79.4607C450.981 78.7617 449.725 77.6872 448.69 76.2374C447.577 74.7098 446.929 72.8975 446.748 70.8004C446.023 72.6645 444.923 74.3344 443.447 75.8102C441.997 77.2859 440.314 78.438 438.398 79.2665C436.483 80.095 434.515 80.5092 432.496 80.5092ZM434.515 74.917C436.198 74.917 437.958 74.4121 439.797 73.4024C441.635 72.3927 443.149 71.0982 444.34 69.5188C445.531 67.9913 446.127 66.5026 446.127 65.0528V56.7809C444.651 58.2566 442.865 59.6417 440.767 60.9362C438.696 62.2307 436.806 63.2664 435.097 64.0431C433.57 64.7162 432.327 65.6094 431.369 66.7227C430.437 67.8101 429.971 69.0917 429.971 70.5674C429.971 71.8878 430.36 72.9493 431.136 73.7519C431.939 74.5286 433.065 74.917 434.515 74.917ZM477.933 97.5968C475.577 97.5968 473.48 97.2214 471.642 96.4706C469.829 95.7456 468.405 94.723 467.37 93.4026C466.36 92.1081 465.855 90.6194 465.855 88.9365C465.855 87.0983 466.451 85.5967 467.642 84.4316C468.858 83.2924 470.489 82.7229 472.535 82.7229C474.088 82.7229 475.279 83.2407 476.108 84.2763C476.962 85.3378 477.389 86.697 477.389 88.354C477.389 89.2601 477.091 90.0886 476.496 90.8394C475.9 91.5903 475.111 92.1987 474.127 92.6647C475.189 93.2343 476.043 93.5191 476.69 93.5191C479.02 93.5191 480.962 92.4705 482.515 90.3734C484.069 88.3022 485.247 84.9624 486.049 80.3539L470.632 42.1399H462.904V37.7904H486.865V42.1399H479.797L491.059 72.6257L500.69 42.1399H494.244V37.7904H514.205V42.1399H507.525L494.166 79.616C492.639 84.0433 491.072 87.5643 489.467 90.1792C487.862 92.7942 486.127 94.6841 484.263 95.8492C482.399 97.0143 480.289 97.5968 477.933 97.5968ZM534.089 80.5092C530.982 80.5092 528.121 79.9267 525.506 78.7617C522.891 77.5707 520.729 75.9396 519.021 73.8684C517.338 71.849 516.043 69.5706 515.137 67.0334C514.257 64.4961 513.817 61.8683 513.817 59.1498C513.817 56.7938 514.089 54.5155 514.632 52.3148C515.202 50.1141 516.03 48.0817 517.118 46.2176C519.5 42.1529 522.684 39.3697 526.671 37.868C528.768 37.0655 531.085 36.6642 533.623 36.6642C536.264 36.6642 538.723 37.1302 541.001 38.0622C543.28 38.9943 545.273 40.3406 546.982 42.1011C548.717 43.9134 550.076 46.1918 551.06 48.9361C552.07 51.6805 552.6 54.7226 552.652 58.0624H522.71V58.3731C522.71 62.878 523.668 66.6709 525.584 69.7519C526.542 71.3053 527.823 72.5221 529.429 73.4024C531.034 74.2568 532.859 74.6839 534.904 74.6839C536.717 74.6839 538.464 74.3085 540.147 73.5577C541.856 72.781 543.332 71.6677 544.574 70.2179C545.843 68.7421 546.749 67.0204 547.293 65.0528L551.837 66.4897C551.163 69.3376 550.011 71.8231 548.38 73.9461C546.749 76.0432 544.717 77.6613 542.283 78.8005C539.849 79.9397 537.118 80.5092 534.089 80.5092ZM544.108 53.8682C544.056 51.4086 543.565 49.2339 542.633 47.3439C541.726 45.428 540.497 43.9393 538.943 42.8778C537.416 41.8163 535.72 41.2856 533.856 41.2856C531.966 41.2856 530.231 41.8163 528.652 42.8778C527.073 43.9393 525.778 45.428 524.768 47.3439C523.784 49.2339 523.189 51.4086 522.982 53.8682H544.108ZM556.031 75.1111H563.604V42.1399H556.031V37.7904L570.749 37.1302L571.798 46.2176C572.445 44.017 573.623 41.9458 575.332 40.004C576.238 38.9684 577.351 38.1528 578.672 37.5574C580.018 36.9619 581.455 36.6642 582.982 36.6642C584.406 36.6642 585.701 36.936 586.866 37.4797C588.031 37.9975 588.95 38.7613 589.623 39.771C590.322 40.7807 590.672 41.9716 590.672 43.3438C590.672 44.6383 590.4 45.7775 589.856 46.7613C589.339 47.7193 588.627 48.4572 587.72 48.975C586.814 49.4669 585.817 49.7128 584.73 49.7128C583.203 49.7128 581.895 49.2339 580.808 48.2759C579.746 47.318 579.215 46.0752 579.215 44.5477C579.215 44.0558 579.332 43.5251 579.565 42.9555C579.824 42.3859 580.096 41.9199 580.38 41.5574L580.808 41.1302C579.28 41.1302 577.921 41.6092 576.73 42.5671C575.539 43.4992 574.607 44.7937 573.934 46.4507C572.613 49.661 571.953 53.221 571.953 57.1304V75.1111H580.691V79.4607H556.031V75.1111Z" fill="black"/>
<defs>
<linearGradient id="paint0_linear_1470_656" x1="21.395" y1="8.34668" x2="21.395" y2="49.4078" gradientUnits="userSpaceOnUse">
<stop stop-color="#8181FF"/>
<stop offset="1" stop-color="#FEFFDA"/>
</linearGradient>
</defs>
</svg>
