<svg width="198" height="198" viewBox="0 0 198 198" fill="none" xmlns="http://www.w3.org/2000/svg">
<path d="M0 0H48.2625C74.9171 0 96.525 21.6079 96.525 48.2625V48.2625C96.525 74.9171 74.9171 96.525 48.2625 96.525V96.525C21.6079 96.525 0 74.9172 0 48.2625V0Z" fill="url(#paint0_linear_1470_670)"/>
<path d="M0 101.475H48.2625C74.9171 101.475 96.525 123.083 96.525 149.737V149.737C96.525 176.392 74.9171 198 48.2625 198V198C21.6079 198 0 176.392 0 149.737V101.475Z" fill="white"/>
<path d="M101.475 0H149.737C176.392 0 198 21.6079 198 48.2625V48.2625C198 74.9171 176.392 96.525 149.737 96.525V96.525C123.083 96.525 101.475 74.9172 101.475 48.2625V0Z" fill="white"/>
<path d="M101.475 101.475H149.737C176.392 101.475 198 123.083 198 149.737V149.737C198 176.392 176.392 198 149.737 198V198C123.083 198 101.475 176.392 101.475 149.737V101.475Z" fill="white"/>
<defs>
<linearGradient id="paint0_linear_1470_670" x1="48.2625" y1="0" x2="48.2625" y2="96.525" gradientUnits="userSpaceOnUse">
<stop stop-color="#8181FF"/>
<stop offset="1" stop-color="#FEFFDA"/>
</linearGradient>
</defs>
</svg>
